Coordinates
version=1
nRows=11
nColumns=42
inDegrees=yes

Units are S.I. units (second, meters, Newtons, ...)
If the header above contains a line with 'inDegrees', this indicates whether rotational values are in degrees (yes) or radians (no).

endheader
time	pelvis_tilt	pelvis_list	pelvis_rotation	pelvis_tx	pelvis_ty	pelvis_tz	hip_flexion_r	hip_adduction_r	hip_rotation_r	knee_angle_r	knee_adduction_r	knee_angle_r_beta	ankle_angle_r	subtalar_angle_r	mtp_angle_r	hip_flexion_l	hip_adduction_l	hip_rotation_l	knee_angle_l	knee_adduction_l	knee_angle_l_beta	ankle_angle_l	subtalar_angle_l	mtp_angle_l	lumbar_extension	lumbar_bending	lumbar_rotation	arm_flex_r	arm_add_r	arm_rot_r	elbow_flex_r	pro_sup_r	wrist_flex_r	wrist_dev_r	arm_flex_l	arm_add_l	arm_rot_l	elbow_flex_l	pro_sup_l	wrist_flex_l	wrist_dev_l
      1.30000000	      7.40478586	      6.34455615	     19.10113482	      0.15579545	      0.89417543	      0.48048030	     -0.92935585	     -2.29311266	    -27.55146067	     26.37214985	     -2.36036194	      0.46028085	     21.23970751	      6.24908907	     -8.00685000	     32.35020584	     -9.44254550	     -1.92920203	     31.97510336	      5.74187000	      0.55807083	      6.51905223	     13.48885022	     -8.00685000	    -24.10657937	     -5.64682830	     -1.36844192	     -9.96713984	    -24.46924361	    -27.75238365	     66.99116066	     90.00000001	      0.00000000	      0.00000000	      0.06843425	    -20.81110973	     13.17980564	     88.85379032	     90.00000001	      0.00000000	      0.00000000
      1.31000000	      7.92737046	      6.22549058	     18.65753298	      0.15838518	      0.89383267	      0.48056580	     -1.54247743	     -1.93646902	    -27.01625976	     26.42177081	     -2.30135840	      0.46114689	     21.78586195	      5.70863296	     -7.99339620	     32.76127112	     -9.60329013	     -2.77056306	     32.59472020	      5.54538576	      0.56888519	      6.41682027	     13.81194993	     -7.99339620	    -24.39818295	     -5.40994549	     -1.02757337	    -10.05525619	    -24.76102260	    -26.89277158	     68.22072065	     90.00000001	      0.00000000	      0.00000000	     -0.35795258	    -20.82473157	     12.50839426	     88.93417045	     90.00000001	      0.00000000	      0.00000000
      1.32000000	      8.23358087	      6.19084392	     18.37390491	      0.16094082	      0.89344648	      0.48045090	     -1.93294028	     -1.80028615	    -26.80250134	     26.59425099	     -2.30027596	      0.46415724	     21.85417565	      5.60969023	     -7.98843999	     33.11300904	     -9.47925077	     -2.99237437	     32.78612747	      5.61636010	      0.57222587	      6.38714784	     13.89918015	     -7.98843999	    -24.47360751	     -5.33534386	     -0.80017511	     -9.80868146	    -24.71376546	    -26.61894517	     68.63980055	     90.00000001	      0.00000000	      0.00000000	     -0.63098288	    -20.93720777	     12.35989270	     88.78856242	     90.00000001	      0.00000000	      0.00000000
      1.33000000	      8.46769444	      6.13707448	     18.06733616	      0.16355873	      0.89300457	      0.48023585	     -2.26470206	     -1.70728681	    -26.66737236	     26.73731541	     -2.29174155	      0.46665419	     21.88058937	      5.58213668	     -7.98524169	     33.43195489	     -9.27097307	     -3.04172706	     32.88988963	      5.64190619	      0.57403686	      6.33689917	     13.91626632	     -7.98524169	    -24.46994173	     -5.27812450	     -0.44958986	     -9.67932952	    -24.65166138	    -26.42819111	     68.88479621	     90.00000001	      0.00000000	      0.00000000	     -0.87608613	    -20.97331549	     12.26041110	     88.72445003	     90.00000001	      0.00000000	      0.00000000
      1.34000000	      8.95752416	      6.09060154	     17.75382411	      0.16626352	      0.89283841	      0.47990424	     -3.00177905	     -1.49217994	    -26.29541807	     26.65273035	     -2.16286398	      0.46517790	     22.45705612	      5.35928286	     -7.97679596	     33.57101294	     -9.19614250	     -3.63730843	     33.32321898	      5.48133727	      0.58159989	      6.20002185	     14.19122279	     -7.97679596	    -24.78034455	     -5.07873337	     -0.26348756	     -9.82733491	    -24.85877320	    -25.60735008	     70.12488965	     90.00000001	      0.00000000	      0.00000000	     -1.32344849	    -20.86046059	     11.60341035	     88.89291729	     90.00000001	      0.00000000	      0.00000000
      1.35000000	      9.12523770	      6.01428612	     17.43344308	      0.16897950	      0.89238456	      0.47963418	     -3.26978733	     -1.41549118	    -26.16894105	     26.79397745	     -2.16252824	      0.46764313	     22.41427305	      5.37347027	     -7.97393579	     33.79999048	     -8.96578484	     -3.59683108	     33.37614111	      5.52481424	      0.58252355	      6.15659654	     14.22088989	     -7.97393579	    -24.69886809	     -5.02799623	      0.07287503	     -9.64394410	    -24.74835505	    -25.43672882	     70.29676727	     90.00000001	      0.00000000	      0.00000000	     -1.58888590	    -20.87213341	     11.58049428	     88.79331999	     90.00000001	      0.00000000	      0.00000000
      1.36000000	      9.54480807	      6.03160221	     17.13840023	      0.17178107	      0.89237282	      0.47924428	     -4.00131161	     -1.30592384	    -25.90453882	     26.63780780	     -2.05031280	      0.46491745	     22.84690062	      5.33169683	     -7.96719589	     33.67109662	     -8.71982683	     -3.77384706	     33.44962907	      5.48982476	      0.58380616	      6.00785748	     14.52763472	     -7.96719589	    -24.95831969	     -4.92665326	      0.15222939	     -9.61518022	    -24.82380073	    -24.66593856	     71.36775356	     90.00000001	      0.00000000	      0.00000000	     -2.07772752	    -20.81448601	     11.07722073	     88.83391371	     90.00000001	      0.00000000	      0.00000000
      1.37000000	      9.68098387	      5.92960706	     16.80211845	      0.17460048	      0.89192429	      0.47890638	     -4.25839163	     -1.23467989	    -25.83089627	     26.73822399	     -2.05160323	      0.46667004	     22.82786010	      5.35137469	     -7.96533760	     33.78917984	     -8.48871713	     -3.69313716	     33.47823729	      5.51428112	      0.58430547	      5.96245130	     14.55827730	     -7.96533760	    -24.85081257	     -4.85933603	      0.48382246	     -9.45017871	    -24.68369627	    -24.49798412	     71.53065492	     90.00000001	      0.00000000	      0.00000000	     -2.37663573	    -20.77742101	     11.08702552	     88.74980229	     90.00000001	      0.00000000	      0.00000000
      1.38000000	      9.81385679	      5.83061608	     16.44649758	      0.17751534	      0.89151281	      0.47856805	     -4.53083839	     -1.15598443	    -25.74002434	     26.80765611	     -2.05950092	      0.46788186	     22.86111061	      5.37548344	     -7.96349010	     33.82372385	     -8.24892909	     -3.58410401	     33.48571598	      5.52688899	      0.58443600	      5.89407037	     14.59595912	     -7.96349010	    -24.73772461	     -4.79486678	      0.76750024	     -9.26379145	    -24.52099245	    -24.27260656	     71.82928663	     90.00000001	      0.00000000	      0.00000000	     -2.74963625	    -20.73579954	     11.08060666	     88.64044870	     90.00000001	      0.00000000	      0.00000000
      1.39000000	     10.39212906	      6.02737885	     16.10070121	      0.18043505	      0.89206255	      0.47800973	     -5.61606823	     -1.22931147	    -25.42246021	     26.43708007	     -1.85373521	      0.46141409	     23.32853957	      5.72382781	     -7.95105455	     32.98614094	     -7.82000901	     -3.59491783	     33.04872566	      5.55946758	      0.57680908	      5.66715449	     14.79428179	     -7.95105455	    -25.26500686	     -4.81421705	      0.64935379	     -9.20580319	    -24.75927315	    -22.94016386	     73.08619182	     90.00000001	      0.00000000	      0.00000000	     -3.37752565	    -20.57795529	     10.31568871	     88.78661727	     90.00000001	      0.00000000	      0.00000000
      1.40000000	     10.44820924	      5.87910347	     15.75488738	      0.18349017	      0.89151061	      0.47765378	     -5.80130205	     -1.13728745	    -25.37554903	     26.51661620	     -1.87276061	      0.46280226	     23.34425551	      5.74135883	     -7.94937720	     32.98045862	     -7.60141594	     -3.45475224	     33.02553462	      5.53905199	      0.57640432	      5.60779997	     14.81877324	     -7.94937720	    -25.05818520	     -4.73637271	      0.94961345	     -9.04551084	    -24.54493421	    -22.77173337	     73.29990556	     90.00000001	      0.00000000	      0.00000000	     -3.75024016	    -20.49827010	     10.37524549	     88.68400317	     90.00000001	      0.00000000	      0.00000000
